<svg xmlns="http://www.w3.org/2000/svg" viewBox="0 0 97.75 97.75"><g fill="#8DA2CD"><path d="M48.92 40.507c4.668-.017 8.385-3.766 8.368-8.443-.017-4.68-3.742-8.402-8.41-8.406-4.71-.005-8.47 3.787-8.433 8.508.035 4.66 3.794 8.358 8.476 8.34z"/><path d="M48.875 0C21.882 0 0 21.883 0 48.875S21.882 97.75 48.875 97.75 97.75 75.867 97.75 48.875 75.868 0 48.875 0zm.07 14.863c9.52.026 17.16 7.813 17.112 17.438-.048 9.404-7.814 17.025-17.318 16.993-9.408-.032-17.123-7.83-17.067-17.253.053-9.525 7.772-17.203 17.272-17.177zm19.282 41.194c-2.105 2.16-4.64 3.725-7.453 4.816-2.66 1.03-5.575 1.55-8.46 1.896.436.473.64.706.913.978 3.916 3.937 7.85 7.854 11.754 11.802 1.33 1.346 1.608 3.014.876 4.577-.8 1.71-2.592 2.834-4.35 2.713-1.115-.077-1.984-.63-2.755-1.407-2.955-2.974-5.967-5.895-8.86-8.925-.846-.882-1.25-.714-1.995.052-2.973 3.062-5.995 6.075-9.034 9.072-1.364 1.346-2.988 1.59-4.572.82-1.683-.814-2.753-2.533-2.67-4.262.057-1.166.63-2.06 1.433-2.858 3.878-3.87 7.743-7.75 11.61-11.628.256-.257.494-.53.867-.93-5.273-.55-10.028-1.85-14.1-5.032-.505-.396-1.026-.778-1.486-1.222-1.782-1.71-1.96-3.672-.552-5.69 1.207-1.728 3.23-2.19 5.336-1.197.408.19.796.433 1.168.69 7.586 5.212 18.008 5.355 25.624.232.754-.576 1.56-1.05 2.496-1.29 1.816-.467 3.512.202 4.486 1.792 1.115 1.817 1.102 3.59-.27 5z"/></g></svg>